<?xml version="1.0" encoding="iso-8859-1"?>
<!-- Generator: Adobe Illustrator 19.0.0, SVG Export Plug-In . SVG Version: 6.00 Build 0)  -->
<svg version="1.1" id="Capa_1" xmlns="http://www.w3.org/2000/svg" xmlns:xlink="http://www.w3.org/1999/xlink" x="0px" y="0px"
	 viewBox="0 0 512 512" style="enable-background:new 0 0 512 512;" xml:space="preserve">
<path style="fill:#FFFFFF;" d="M427.03,452.68H33.671c-14.168,0-25.654-11.485-25.654-25.654V84.974
	c0-14.168,11.485-25.654,25.654-25.654H427.03c14.168,0,25.654,11.485,25.654,25.654v342.052
	C452.684,441.194,441.198,452.68,427.03,452.68z"/>
<path style="fill:#AFB5BC;" d="M204.162,332.427h43.82c4.427,0,8.017-3.589,8.017-8.017s-3.589-8.017-8.017-8.017h-43.82
	c-4.427,0-8.017,3.589-8.017,8.017S199.735,332.427,204.162,332.427z"/>
<g>
	<circle style="fill:#FFC850;" cx="76.427" cy="256.004" r="17.103"/>
	<circle style="fill:#FFC850;" cx="76.427" cy="324.415" r="17.103"/>
	<circle style="fill:#FFC850;" cx="76.427" cy="392.825" r="17.103"/>
</g>
<path style="fill:#D5DCED;" d="M452.684,153.385L260.889,345.178l-21.927,46.986c-2.717,5.823,3.322,11.864,9.146,9.146
	l46.986-21.928l157.59-157.587V153.385z"/>
<g>
	<path style="fill:#FFC850;" d="M230.396,384.819l41.526-19.378c3.613-1.686,6.903-3.99,9.722-6.809l219.843-219.843
		c3.339-3.339,3.339-8.754,0-12.094l-22.113-22.113c-3.339-3.339-8.754-3.339-12.094,0L247.438,324.425
		c-2.819,2.819-5.123,6.109-6.809,9.722l-19.378,41.526C218.533,381.497,224.572,387.536,230.396,384.819z"/>
	<path style="fill:#FFC850;" d="M222.621,383.449c1.898,1.898,4.864,2.729,7.775,1.37l41.526-19.378
		c3.613-1.687,6.903-3.99,9.722-6.81l200.237-200.237l-17.103-17.103L222.621,383.449z"/>
</g>
<path style="fill:#FFFFFF;" d="M281.658,358.616l-34.205-34.205l-0.015,0.015c-2.819,2.819-5.123,6.109-6.809,9.722l-19.378,41.525
	c-2.717,5.823,3.322,11.863,9.146,9.146l41.525-19.378c3.613-1.686,6.903-3.99,9.722-6.81L281.658,358.616z"/>
<path style="fill:#E4EAF8;" d="M264.556,341.513l-41.936,41.936c1.898,1.898,4.864,2.729,7.775,1.37l41.526-19.378
	c3.613-1.686,6.903-3.99,9.722-6.81l0.015-0.015L264.556,341.513z"/>
<path style="fill:#FFFFFF;" d="M479.375,104.582c-3.34-3.34-8.753-3.34-12.094,0l-19.607,19.607l34.205,34.205l19.607-19.607
	c3.34-3.34,3.34-8.754,0-12.094L479.375,104.582z"/>
<path style="fill:#E4EAF8;" d="M501.486,126.694l-11.056-11.056l-25.654,25.654l17.103,17.103l19.607-19.607
	C504.827,135.447,504.827,130.033,501.486,126.694z"/>
<g>
	<path style="fill:#92E0C0;" d="M110.632,118.645c4.427,0,8.017-3.589,8.017-8.017s-3.589-8.017-8.017-8.017H59.325
		c-4.427,0-8.017,3.589-8.017,8.017v85.513c0,4.427,3.589,8.017,8.017,8.017h51.308c4.427,0,8.017-3.589,8.017-8.017
		s-3.589-8.017-8.017-8.017H67.341v-26.723h34.74c4.427,0,8.017-3.589,8.017-8.017s-3.589-8.017-8.017-8.017h-34.74v-26.723H110.632
		z"/>
	<path style="fill:#92E0C0;" d="M131.278,202.402c1.478,1.182,3.246,1.757,5.003,1.757c2.352,0,4.682-1.03,6.265-3.009
		l27.946-34.931l27.946,34.931c1.583,1.98,3.913,3.009,6.265,3.009c1.756,0,3.525-0.575,5.002-1.757
		c3.457-2.765,4.018-7.811,1.252-11.268l-30.199-37.749l30.199-37.749c2.765-3.457,2.205-8.502-1.252-11.268
		c-3.457-2.766-8.503-2.205-11.268,1.252l-27.945,34.933l-27.946-34.931c-2.766-3.458-7.813-4.019-11.268-1.252
		c-3.457,2.765-4.018,7.811-1.252,11.268l30.199,37.749l-30.199,37.749C127.26,194.591,127.821,199.635,131.278,202.402z"/>
	<path style="fill:#92E0C0;" d="M228.778,204.003c4.341,0.867,8.564-1.948,9.433-6.289l3.842-19.209h45.004l3.842,19.209
		c0.762,3.811,4.11,6.447,7.853,6.447c0.521,0,1.05-0.051,1.581-0.157c4.342-0.869,7.157-5.092,6.289-9.433l-15.041-75.202
		c-1.941-9.709-10.537-16.756-20.44-16.756h-13.174c-9.901,0-18.498,7.047-20.439,16.756l-15.041,75.202
		C221.621,198.911,224.436,203.134,228.778,204.003z M257.968,118.645h13.174c2.285,0,4.269,1.626,4.717,3.866l7.992,39.959h-38.591
		l7.992-39.959C253.7,120.271,255.684,118.645,257.968,118.645z"/>
</g>
<g>
	<path style="fill:#AFB5BC;" d="M127.735,264.017h136.821c4.427,0,8.017-3.589,8.017-8.017c0-4.427-3.589-8.017-8.017-8.017H127.735
		c-4.427,0-8.017,3.589-8.017,8.017C119.718,260.428,123.307,264.017,127.735,264.017z"/>
	<path style="fill:#AFB5BC;" d="M318.179,332.427h66.268c4.427,0,8.017-3.589,8.017-8.017s-3.589-8.017-8.017-8.017h-66.268
		c-4.427,0-8.017,3.589-8.017,8.017S313.751,332.427,318.179,332.427z"/>
	<path style="fill:#AFB5BC;" d="M146.294,400.838h66.268c4.427,0,8.017-3.589,8.017-8.017s-3.589-8.017-8.017-8.017h-66.268
		c-4.427,0-8.017,3.589-8.017,8.017S141.867,400.838,146.294,400.838z"/>
	<path style="fill:#AFB5BC;" d="M127.735,332.427h34.205c4.427,0,8.017-3.589,8.017-8.017s-3.589-8.017-8.017-8.017h-34.205
		c-4.427,0-8.017,3.589-8.017,8.017S123.307,332.427,127.735,332.427z"/>
</g>
<path style="fill:#92E0C0;" d="M331.158,106.294c-2.117-3.294-6.348-4.617-10.027-2.98c-2.952,1.313-4.732,4.383-4.732,7.615v84.878
	c0,4.39,3.382,8.218,7.77,8.349c4.54,0.137,8.264-3.504,8.264-8.014v-58.217l23.606,36.719c1.026,1.596,2.527,2.875,4.331,3.458
	c3.602,1.165,7.345-0.284,9.27-3.279l23.72-36.899v34.943c0,3.814,4.611,5.724,7.308,3.027l7.472-7.472
	c0.803-0.803,1.254-1.892,1.254-3.027v-54.47c0-3.232-1.782-6.302-4.736-7.614c-3.68-1.633-7.907-0.311-10.024,2.982l-31.737,49.369
	L331.158,106.294"/>
<path style="fill:#474D54;" d="M507.156,121.024l-22.113-22.112c-3.129-3.13-7.29-4.853-11.715-4.853
	c-4.425,0-8.587,1.723-11.715,4.853l-0.912,0.913V84.974c0-18.566-15.105-33.671-33.671-33.671H33.671
	C15.105,51.304,0,66.408,0,84.974v342.052c0,18.566,15.105,33.671,33.671,33.671H427.03c18.566,0,33.671-15.105,33.671-33.671
	V190.911l46.455-46.455C513.615,137.997,513.615,127.485,507.156,121.024z M444.667,427.026c0,9.725-7.912,17.637-17.637,17.637
	H33.671c-9.725,0-17.637-7.912-17.637-17.637V84.974c0-9.725,7.912-17.637,17.637-17.637H427.03c9.725,0,17.637,7.912,17.637,17.637
	v30.885L244.133,316.394l-5.841,6.214c0,0-9.637,18.209-11.601,22.403c-3.882,8.294-7.76,16.59-11.63,24.89
	c-1.361,2.92-2.812,5.798-4.193,8.707c-1.325,2.791-2.954,5.598-3.861,8.562c-0.642,2.098-0.853,4.387-0.2,6.481
	c0.707,2.265,2.356,4.12,4.168,5.652c0.707,0.599,1.477,1.174,2.379,1.379c1.464,0.332,2.943-0.366,4.286-1.035
	c8.956-4.458,18.124-8.488,27.189-12.718c8.54-3.986,17.08-7.971,25.62-11.956c3.441-1.605,6.882-3.211,10.322-4.817
	c0.847-0.395,1.618-0.935,2.279-1.596l161.616-161.616V427.026z M495.819,133.118L281.658,347.279l-8.485,8.73l-43.337,20.224
	l19.906-42.657l9.048-9.166l214.16-214.159c0.208-0.207,0.547-0.207,0.756,0l22.112,22.111
	C496.026,132.571,496.026,132.91,495.819,133.118z"/>
<g>
</g>
<g>
</g>
<g>
</g>
<g>
</g>
<g>
</g>
<g>
</g>
<g>
</g>
<g>
</g>
<g>
</g>
<g>
</g>
<g>
</g>
<g>
</g>
<g>
</g>
<g>
</g>
<g>
</g>
</svg>
